<svg id="visual" viewBox="0 0 900 600" width="900" height="600" xmlns="http://www.w3.org/2000/svg" xmlns:xlink="http://www.w3.org/1999/xlink" version="1.1"><rect x="0" y="0" width="900" height="600" fill="red"></rect><path d="M0 264L129 264L129 277L257 277L257 292L386 292L386 300L514 300L514 279L643 279L643 317L771 317L771 327L900 327L900 248L900 601L900 601L771 601L771 601L643 601L643 601L514 601L514 601L386 601L386 601L257 601L257 601L129 601L129 601L0 601Z" fill="#9900ff"></path><path d="M0 402L129 402L129 432L257 432L257 376L386 376L386 432L514 432L514 356L643 356L643 356L771 356L771 460L900 460L900 433L900 601L900 601L771 601L771 601L643 601L643 601L514 601L514 601L386 601L386 601L257 601L257 601L129 601L129 601L0 601Z" fill="red"></path><path d="M0 445L129 445L129 478L257 478L257 532L386 532L386 482L514 482L514 533L643 533L643 453L771 453L771 478L900 478L900 487L900 601L900 601L771 601L771 601L643 601L643 601L514 601L514 601L386 601L386 601L257 601L257 601L129 601L129 601L0 601Z" fill="aqua"></path></svg>